# xmcd
#
# Track frame offsets:
#	150
#	29380
#	42566
#	65756
#	81025
#	103256
#	114187
#	128280
#	159144
#
# Disc length: 2459 seconds
#
# Revision: 2
# Processed by: cddbd v1.5.2PL0 Copyright (c) Steve Scherf et al.
# Submitted via: EZCDDA 4.3.2
#
DISCID=69099909
DTITLE=Wewelsburg - Ultimate Intollerance
DYEAR=1900
DGENRE=
TTITLE0=Ultima Intolerance
TTITLE1=The Smell Of Freedom
TTITLE2=Burning The Steel Of Hatred
TTITLE3=Per Aspera Ad Astra
TTITLE4=Listen To Your Heart
TTITLE5=Gas Chamber Rock'n'roll
TTITLE6=Gott Mit Uns
TTITLE7=There, Where Winds Sing Their
TTITLE8=Ite, Missia Est
EXTD=
EXTT0=
EXTT1=
EXTT2=
EXTT3=
EXTT4=
EXTT5=
EXTT6=
EXTT7=
EXTT8=
PLAYORDER=
